<?xml version="1.0" encoding="utf-8"?>
<!-- Generator: Adobe Illustrator 20.1.0, SVG Export Plug-In . SVG Version: 6.00 Build 0)  -->
<svg version="1.1" id="Ebene_1" xmlns="http://www.w3.org/2000/svg" xmlns:xlink="http://www.w3.org/1999/xlink" x="0px" y="0px"
	 viewBox="0 0 36 36" style="enable-background:new 0 0 36 36;" xml:space="preserve">
<style type="text/css">
	.st0{fill:#FFFFFF;}
</style>
<path class="st0" d="M19,18l4.8-4.8c0.3-0.3,0.3-0.7,0-1s-0.7-0.3-1,0L18,17l-4.8-4.8c-0.3-0.2-0.7-0.2-1,0c-0.2,0.3-0.2,0.7,0,1
	L17,18l-4.8,4.8c-0.3,0.3-0.3,0.7,0,1c0.1,0.2,0.3,0.2,0.5,0.2c0.2,0,0.4,0,0.5-0.2L18,19l4.8,4.8c0.1,0.1,0.3,0.2,0.5,0.2
	c0.2,0,0.4,0,0.5-0.2c0.3-0.3,0.3-0.7,0-1L19,18z"/>
</svg>
