<?xml version="1.0" encoding="utf-8"?>
<!-- Generator: Adobe Illustrator 20.1.0, SVG Export Plug-In . SVG Version: 6.00 Build 0)  -->
<svg version="1.1" id="Ebene_1" xmlns="http://www.w3.org/2000/svg" xmlns:xlink="http://www.w3.org/1999/xlink" x="0px" y="0px"
	 viewBox="0 0 36 36" style="enable-background:new 0 0 36 36;" xml:space="preserve">
<style type="text/css">
	.st0{fill:#FFFFFF;}
</style>
<path class="st0" d="M23.3,14.8H12.7c-0.4,0-0.7-0.3-0.7-0.7s0.3-0.7,0.7-0.7h10.6c0.4,0,0.7,0.3,0.7,0.7S23.7,14.8,23.3,14.8z
	 M24,17.3c0-0.4-0.3-0.7-0.7-0.7H12.7c-0.4,0-0.7,0.3-0.7,0.7s0.3,0.7,0.7,0.7h10.6C23.7,18,24,17.7,24,17.3z M24,20.6
	c0-0.4-0.3-0.7-0.7-0.7H12.7c-0.4,0-0.7,0.3-0.7,0.7c0,0.4,0.3,0.7,0.7,0.7h10.6C23.7,21.3,24,21,24,20.6z"/>
</svg>
