<?xml version="1.0" encoding="utf-8"?>
<!-- Generator: Adobe Illustrator 20.1.0, SVG Export Plug-In . SVG Version: 6.00 Build 0)  -->
<svg version="1.1" id="Ebene_1" xmlns="http://www.w3.org/2000/svg" xmlns:xlink="http://www.w3.org/1999/xlink" x="0px" y="0px"
	 viewBox="0 0 577.7 162.7" style="enable-background:new 0 0 577.7 162.7;" xml:space="preserve">
<style type="text/css">
	.st0{fill:#FFFFFF;}
</style>
<g>
	<path class="st0" d="M26,11.7c-3.8,0-6.8,2.2-9.1,6.7s-3.3,10.7-3.3,18.7c0,16.6,4.3,24.9,13,24.9c3.8,0,7.8-1.2,11.9-3.6v11.9
		c-3.5,2.3-8,3.5-13.4,3.5c-8.1,0-14.3-3.2-18.6-9.6S0,48.7,0,37S2.2,16.3,6.7,9.8S17.4,0,25.3,0c2.6,0,5.1,0.4,7.5,1.1
		c2.4,0.7,5,2,7.7,3.8l-4.4,10.8c-1.5-1-3-1.9-4.7-2.8C29.8,12.1,28,11.7,26,11.7z"/>
	<path class="st0" d="M62.1,44.9v27.9H48.7V1h17.5c7.4,0,12.9,1.8,16.4,5.3s5.3,8.9,5.3,16.1c0,9.1-3.1,15.4-9.2,19l13.8,31.5H78.2
		L66.9,44.9H62.1z M62.1,33.4h3.4c3.1,0,5.4-0.9,6.8-2.7c1.4-1.8,2.1-4.4,2.1-8c0-3.7-0.7-6.3-2.2-7.8c-1.5-1.6-3.7-2.3-6.7-2.3
		h-3.3V33.4z"/>
	<path class="st0" d="M131.3,72.8H99V1h32.3v11.5h-19v17.1H130v11.6h-17.6v19.9h19V72.8z"/>
	<path class="st0" d="M175.8,72.8l-4.1-18.1h-18.7l-4.1,18.1h-13.4l17.8-72.1h18.1l17.8,72.1H175.8z M169.1,42.9l-3.8-16.7
		c-0.2-1-0.7-3.6-1.5-7.6c-0.8-4.1-1.3-6.8-1.4-8.2c-0.4,2.8-1,5.9-1.6,9.3s-2.4,11.1-5.1,23.2H169.1z"/>
	<path class="st0" d="M214.1,72.8h-13.3v-60h-13.7V1h40.8v11.7h-13.7V72.8z"/>
	<path class="st0" d="M237.9,72.8V1h12.6v71.8H237.9z"/>
	<path class="st0" d="M296.5,1H310l-16.9,71.8h-17L259.3,1h13.4l9.4,43.8c0.9,3.7,1.7,9.1,2.5,16.1c0.7-5.9,1.6-11.3,2.6-16.1
		L296.5,1z"/>
	<path class="st0" d="M348.6,72.8h-32.3V1h32.3v11.5h-19v17.1h17.6v11.6h-17.6v19.9h19V72.8z"/>
	<path class="st0" d="M429.6,36.2c0,11.8-2.4,20.9-7.2,27.2c-4.8,6.3-11.8,9.4-20.8,9.4h-17.6V1h19.2c8.3,0,14.8,3.1,19.5,9.3
		C427.3,16.5,429.6,25.1,429.6,36.2z M415.9,36.6c0-16-4.4-24.1-13.3-24.1h-5.4v48.5h4.3c4.9,0,8.5-2,10.8-6.1
		S415.9,44.8,415.9,36.6z"/>
	<path class="st0" d="M474,72.8l-4.1-18.1h-18.7l-4.1,18.1h-13.4l17.8-72.1h18.1l17.8,72.1H474z M467.4,42.9l-3.8-16.7
		c-0.2-1-0.7-3.6-1.5-7.6c-0.8-4.1-1.3-6.8-1.4-8.2c-0.4,2.8-1,5.9-1.6,9.3s-2.4,11.1-5.1,23.2H467.4z"/>
	<path class="st0" d="M512.3,72.8H499v-60h-13.7V1h40.8v11.7h-13.7V72.8z"/>
	<path class="st0" d="M564.3,72.8l-4.1-18.1h-18.7l-4.1,18.1H524l17.8-72.1h18.1l17.8,72.1H564.3z M557.6,42.9l-3.8-16.7
		c-0.2-1-0.7-3.6-1.5-7.6s-1.3-6.8-1.4-8.2c-0.4,2.8-1,5.9-1.6,9.3c-0.7,3.4-2.4,11.1-5.1,23.2H557.6z"/>
	<path class="st0" d="M131.3,161.7h-26V89.9h26v4.6h-21.2v27.2h20v4.6h-20v30.7h21.2V161.7z"/>
	<path class="st0" d="M181.7,161.7h-6.1l-27.1-64.3h-0.4c0.4,4.5,0.6,8.7,0.6,12.9v51.5h-4.7V89.9h6.2l26.9,63.6h0.3
		c-0.3-5.4-0.4-9.8-0.4-13.4V89.9h4.7V161.7z"/>
	<path class="st0" d="M221,125.5h15.7v34c-5.5,2.1-11.1,3.2-17,3.2c-7.8,0-13.9-3.3-18.2-9.8c-4.3-6.5-6.5-15.6-6.5-27.2
		c0-11.6,2.2-20.7,6.7-27.1c4.5-6.4,10.7-9.6,18.8-9.6c5.4,0,10.6,1.5,15.4,4.6l-2.3,4.2c-4.5-2.9-8.9-4.3-13.1-4.3
		c-6.7,0-11.8,2.8-15.2,8.3s-5.2,13.5-5.2,24c0,10.3,1.7,18.2,5.2,23.9c3.5,5.6,8.4,8.5,14.8,8.5c4.6,0,8.5-0.6,11.7-1.8v-26.1H221
		V125.5z"/>
	<path class="st0" d="M250.2,161.7V89.9h4.8v71.8H250.2z"/>
	<path class="st0" d="M308.5,161.7h-6.1l-27.1-64.3h-0.4c0.4,4.5,0.6,8.7,0.6,12.9v51.5h-4.7V89.9h6.2l26.9,63.6h0.3
		c-0.3-5.4-0.4-9.8-0.4-13.4V89.9h4.7V161.7z"/>
	<path class="st0" d="M350.2,161.7h-26V89.9h26v4.6H329v27.2h20v4.6h-20v30.7h21.2V161.7z"/>
	<path class="st0" d="M388.9,161.7h-26V89.9h26v4.6h-21.2v27.2h20v4.6h-20v30.7h21.2V161.7z"/>
	<path class="st0" d="M406.4,130.3v31.4h-4.8V89.9h9.8c7,0,12.1,1.7,15.4,5c3.2,3.3,4.9,8.2,4.9,14.8c0,5-0.9,9.1-2.7,12.3
		c-1.8,3.2-4.7,5.6-8.9,7.2l14.2,32.5h-5.4l-13.4-31.4H406.4z M406.4,125.9h6.7c4.4,0,7.7-1.3,10.1-4c2.4-2.7,3.5-6.7,3.5-12
		c0-5.4-1.2-9.3-3.6-11.7c-2.4-2.4-6.2-3.6-11.4-3.6h-5.4V125.9z"/>
	<path class="st0" d="M471.8,142.9c0,5.9-1.6,10.7-4.9,14.3s-7.4,5.5-12.5,5.5c-5.7,0-10.3-0.8-13.8-2.5V155
		c1.7,0.9,3.8,1.7,6.3,2.3c2.5,0.6,5,0.8,7.5,0.8c3.7,0,6.7-1.4,9-4.2c2.4-2.8,3.5-6.3,3.5-10.6c0-4-0.8-7.1-2.5-9.4
		c-1.7-2.3-4.9-4.6-9.6-7c-3.7-1.9-6.5-3.7-8.3-5.4c-1.8-1.8-3.2-3.8-4.1-6.1c-0.9-2.3-1.3-5.1-1.3-8.3c0-3.5,0.7-6.7,2.2-9.4
		c1.4-2.7,3.5-4.9,6-6.4s5.4-2.3,8.5-2.3c2.8,0,5.3,0.3,7.6,0.9c2.3,0.6,4.1,1.3,5.4,2l-1.9,4.6c-3.6-1.9-7.3-2.8-11.1-2.8
		c-3.5,0-6.4,1.2-8.6,3.6c-2.2,2.4-3.3,5.6-3.3,9.5c0,4,0.8,7.1,2.4,9.4s4.7,4.5,9.4,6.9c4.8,2.4,8.4,5.1,10.6,8.3
		C470.7,134.6,471.8,138.4,471.8,142.9z"/>
</g>
</svg>
