<?xml version="1.0" encoding="utf-8"?>
<!-- Generator: Adobe Illustrator 20.1.0, SVG Export Plug-In . SVG Version: 6.00 Build 0)  -->
<svg version="1.0" id="Ebene_1" xmlns="http://www.w3.org/2000/svg" xmlns:xlink="http://www.w3.org/1999/xlink" x="0px" y="0px"
	 viewBox="0 0 313.1 327.3" style="enable-background:new 0 0 313.1 327.3;" xml:space="preserve">
<style type="text/css">
	.st0{fill:#FFFFFF;}
</style>
<g>
	<g id="Logo_links">
		<g>
			<path class="st0" d="M141,175.6h-10.6c-13.4,0-24.6-4.3-32.6-12.5c-7.3-7.6-11.3-18.2-11.3-30c0-12,3.8-22.4,11.1-30
				c7.8-8.2,19.2-12.5,32.7-12.5H141v9.8h-10.6c-25.1,0-34,16.9-34,32.7c0,19.9,13.4,32.7,34,32.7H141V175.6z"/>
		</g>
	</g>
	<g id="Logo_mitte">
		<circle class="st0" cx="156.5" cy="133" r="15.6"/>
	</g>
	<g id="Logo_rechts">
		<g>
			<path class="st0" d="M182.6,175.6H172v-9.8h10.6c20.7,0,34-12.8,34-32.7c0-15.8-8.9-32.7-34-32.7H172v-9.9h10.6
				c13.6,0,24.9,4.3,32.8,12.5c7.3,7.6,11.1,18,11.1,30c0,11.8-4,22.4-11.4,30C207.3,171.2,196,175.6,182.6,175.6z"/>
		</g>
	</g>
</g>
<g>
	<path class="st0" d="M93,200.3c-0.9,0-1.6,0.5-2.2,1.6s-0.8,2.6-0.8,4.5c0,4,1,6,3.1,6c0.9,0,1.9-0.3,2.9-0.9v2.9
		c-0.8,0.6-1.9,0.8-3.2,0.8c-2,0-3.5-0.8-4.5-2.3c-1-1.5-1.6-3.8-1.6-6.6s0.5-5,1.6-6.6c1.1-1.6,2.6-2.4,4.5-2.4
		c0.6,0,1.2,0.1,1.8,0.3c0.6,0.2,1.2,0.5,1.9,0.9l-1.1,2.6c-0.4-0.2-0.7-0.5-1.1-0.7C93.9,200.4,93.5,200.3,93,200.3z"/>
	<path class="st0" d="M101.8,208.3v6.8h-3.2v-17.4h4.2c1.8,0,3.1,0.4,4,1.3s1.3,2.2,1.3,3.9c0,2.2-0.8,3.7-2.2,4.6l3.3,7.6h-3.5
		l-2.7-6.8H101.8z M101.8,205.5h0.8c0.8,0,1.3-0.2,1.6-0.7c0.3-0.4,0.5-1.1,0.5-1.9c0-0.9-0.2-1.5-0.5-1.9c-0.4-0.4-0.9-0.6-1.6-0.6
		h-0.8L101.8,205.5L101.8,205.5z"/>
	<path class="st0" d="M118.5,215h-7.8v-17.4h7.8v2.8h-4.6v4.1h4.3v2.8h-4.3v4.8h4.6L118.5,215L118.5,215z"/>
	<path class="st0" d="M129.3,215l-1-4.4h-4.5l-1,4.4h-3.2l4.3-17.4h4.4l4.3,17.4H129.3z M127.7,207.8l-0.9-4c0-0.2-0.2-0.9-0.4-1.8
		c-0.2-1-0.3-1.6-0.3-2c-0.1,0.7-0.2,1.4-0.4,2.3s-0.6,2.7-1.2,5.6H127.7z"/>
	<path class="st0" d="M138.6,215h-3.2v-14.5H132v-2.9h9.9v2.8h-3.3L138.6,215L138.6,215z"/>
	<path class="st0" d="M144.3,215v-17.4h3V215H144.3z"/>
	<path class="st0" d="M158.5,197.7h3.3l-4.1,17.4h-4.1l-4.1-17.4h3.2l2.3,10.6c0.2,0.9,0.4,2.2,0.6,3.9c0.2-1.4,0.4-2.7,0.6-3.9
		L158.5,197.7z"/>
	<path class="st0" d="M171.1,215h-7.8v-17.4h7.8v2.8h-4.6v4.1h4.3v2.8h-4.3v4.8h4.6V215z"/>
	<path class="st0" d="M190.7,206.2c0,2.9-0.6,5.1-1.7,6.6c-1.2,1.5-2.9,2.3-5,2.3h-4.3v-17.4h4.6c2,0,3.6,0.8,4.7,2.3
		C190.2,201.4,190.7,203.5,190.7,206.2z M187.4,206.3c0-3.9-1.1-5.8-3.2-5.8h-1.3v11.7h1c1.2,0,2.1-0.5,2.6-1.5
		C187.1,209.7,187.4,208.3,187.4,206.3z"/>
	<path class="st0" d="M201.5,215l-1-4.4h-4.5l-1,4.4h-3.2l4.3-17.4h4.4l4.3,17.4H201.5z M199.9,207.8l-0.9-4c0-0.2-0.2-0.9-0.4-1.8
		c-0.2-1-0.3-1.6-0.3-2c-0.1,0.7-0.2,1.4-0.4,2.3c-0.1,0.8-0.6,2.7-1.2,5.6H199.9z"/>
	<path class="st0" d="M210.7,215h-3.2v-14.5h-3.3v-2.9h9.9v2.8h-3.3L210.7,215L210.7,215z"/>
	<path class="st0" d="M223.3,215l-1-4.4h-4.5l-1,4.4h-3.2l4.3-17.4h4.4l4.3,17.4H223.3z M221.7,207.8l-0.9-4c0-0.2-0.2-0.9-0.4-1.8
		c-0.2-1-0.3-1.6-0.3-2c-0.1,0.7-0.2,1.4-0.4,2.3c-0.2,0.8-0.6,2.7-1.2,5.6H221.7z"/>
	<path class="st0" d="M118.5,236.6h-6.3v-17.4h6.3v1.1h-5.1v6.6h4.8v1.1h-4.8v7.4h5.1V236.6z"/>
	<path class="st0" d="M130.7,236.6h-1.5l-6.6-15.6h-0.1c0.1,1.1,0.1,2.1,0.1,3.1v12.5h-1.1v-17.4h1.5l6.5,15.4h0.1
		c-0.1-1.3-0.1-2.4-0.1-3.2v-12.1h1.1V236.6z"/>
	<path class="st0" d="M140.2,227.8h3.8v8.2c-1.3,0.5-2.7,0.8-4.1,0.8c-1.9,0-3.4-0.8-4.4-2.4c-1-1.6-1.6-3.8-1.6-6.6s0.5-5,1.6-6.6
		c1.1-1.5,2.6-2.3,4.5-2.3c1.3,0,2.6,0.4,3.7,1.1l-0.6,1c-1.1-0.7-2.2-1-3.2-1c-1.6,0-2.9,0.7-3.7,2c-0.8,1.3-1.3,3.3-1.3,5.8
		c0,2.5,0.4,4.4,1.3,5.8c0.8,1.4,2,2.1,3.6,2.1c1.1,0,2.1-0.1,2.8-0.4V229h-2.6V227.8z"/>
	<path class="st0" d="M147.3,236.6v-17.4h1.2v17.4H147.3L147.3,236.6z"/>
	<path class="st0" d="M161.4,236.6h-1.5l-6.6-15.6h-0.1c0.1,1.1,0.1,2.1,0.1,3.1v12.5h-1.1v-17.4h1.5l6.5,15.4h0.1
		c-0.1-1.3-0.1-2.4-0.1-3.2v-12.1h1.1V236.6z"/>
	<path class="st0" d="M171.5,236.6h-6.3v-17.4h6.3v1.1h-5.1v6.6h4.8v1.1h-4.8v7.4h5.1V236.6z"/>
	<path class="st0" d="M180.9,236.6h-6.3v-17.4h6.3v1.1h-5.1v6.6h4.8v1.1h-4.8v7.4h5.1V236.6z"/>
	<path class="st0" d="M185.1,229v7.6h-1.2v-17.4h2.4c1.7,0,2.9,0.4,3.7,1.2c0.8,0.8,1.2,2,1.2,3.6c0,1.2-0.2,2.2-0.7,3
		c-0.4,0.8-1.1,1.4-2.2,1.7l3.4,7.9h-1.3l-3.2-7.6H185.1L185.1,229z M185.1,227.9h1.6c1.1,0,1.9-0.3,2.4-1s0.8-1.6,0.8-2.9
		c0-1.3-0.3-2.3-0.9-2.8c-0.6-0.6-1.5-0.9-2.8-0.9h-1.3L185.1,227.9L185.1,227.9z"/>
	<path class="st0" d="M200.9,232c0,1.4-0.4,2.6-1.2,3.5c-0.8,0.9-1.8,1.3-3,1.3c-1.4,0-2.5-0.2-3.3-0.6v-1.3
		c0.4,0.2,0.9,0.4,1.5,0.6c0.6,0.1,1.2,0.2,1.8,0.2c0.9,0,1.6-0.3,2.2-1c0.6-0.7,0.8-1.5,0.8-2.6c0-1-0.2-1.7-0.6-2.3
		s-1.2-1.1-2.3-1.7c-0.9-0.5-1.6-0.9-2-1.3c-0.4-0.4-0.8-0.9-1-1.5s-0.3-1.2-0.3-2c0-0.8,0.2-1.6,0.5-2.3c0.3-0.7,0.8-1.2,1.5-1.5
		c0.6-0.4,1.3-0.6,2.1-0.6c0.7,0,1.3,0.1,1.8,0.2c0.6,0.1,1,0.3,1.3,0.5l-0.5,1.1c-0.9-0.5-1.8-0.7-2.7-0.7c-0.8,0-1.5,0.3-2.1,0.9
		c-0.5,0.6-0.8,1.4-0.8,2.3c0,1,0.2,1.7,0.6,2.3c0.4,0.6,1.1,1.1,2.3,1.7c1.2,0.6,2,1.2,2.6,2C200.7,230,200.9,230.9,200.9,232z"/>
</g>
</svg>
