<?xml version="1.0" encoding="utf-8"?>
<!-- Generator: Adobe Illustrator 20.1.0, SVG Export Plug-In . SVG Version: 6.00 Build 0)  -->
<svg version="1.1" id="Ebene_1" xmlns="http://www.w3.org/2000/svg" xmlns:xlink="http://www.w3.org/1999/xlink" x="0px" y="0px"
	 viewBox="0 0 36 36" style="enable-background:new 0 0 36 36;" xml:space="preserve">
<style type="text/css">
	.st0{fill:#FFFFFF;}
</style>
<path class="st0" d="M17.7,6.4c1,0.7,4.5,4.9,4.5,9.2c0,6.1-0.9,8.5-1.2,9.1c-0.5,0.2-1.9,0.8-3.3,0.9c-1.4,0-2.7-0.6-3.3-0.8
	c-0.3-0.6-1.2-3-1.2-9C13.3,11.4,16.7,7.1,17.7,6.4 M17.8,15.9L17.8,15.9L17.8,15.9c1.4,0,2.5-1.1,2.5-2.5c0-1.4-1.1-2.5-2.5-2.5
	c-0.7,0-1.3,0.3-1.8,0.7c-0.5,0.5-0.7,1.1-0.7,1.8C15.3,14.8,16.4,15.9,17.8,15.9 M24.7,18.4c0.2,0.3,0.4,0.6,0.6,0.9
	c0.6,1.3,0.7,3.3,0.7,4.9c-0.5-0.5-1.2-1-1.8-1.3C24.4,21.6,24.6,20.1,24.7,18.4 M10.9,19c0.1,1.5,0.3,2.9,0.5,4.1
	c-0.5,0.3-1,0.7-1.4,1.1c0-1.5,0.1-3.6,0.7-4.9C10.8,19.2,10.8,19.1,10.9,19 M18.3,28.1L18,28.7l-0.3-0.6c0,0,0.1,0,0.1,0
	c0,0,0,0,0,0C17.9,28.1,18.1,28.1,18.3,28.1 M17.7,5.5C17.7,5.5,17.7,5.5,17.7,5.5c-1,0-5.3,5.3-5.3,10.3c0,7.6,1.4,9.6,1.4,9.6
	s1.9,1,3.9,1c0,0,0,0,0,0c2,0,3.9-1.1,3.9-1.1s1.5-2.1,1.5-9.7C23.1,10.6,18.7,5.5,17.7,5.5L17.7,5.5z M17.8,15
	c-0.9,0-1.6-0.7-1.7-1.6c0-0.9,0.7-1.6,1.6-1.6c0,0,0,0,0,0c0.9,0,1.6,0.7,1.7,1.6C19.4,14.3,18.7,15,17.8,15
	C17.8,15,17.8,15,17.8,15L17.8,15z M23.9,16.7c-0.1,3.1-0.4,5.3-0.7,6.7c0.1,0,0.3,0.1,0.4,0.1c1.5,0.7,3.2,2.8,3.2,2.8
	s0.4-4.9-0.7-7.3C25.5,17.8,24.6,17.1,23.9,16.7L23.9,16.7z M11.6,17C11,17.4,10.4,18,9.9,19c-1.1,2.5-0.7,7.3-0.7,7.3
	s1.6-2.1,3.1-2.8c0,0,0,0,0,0C12,22.1,11.7,20,11.6,17L11.6,17z M19.9,26.9c-0.6,0.2-1.4,0.3-2.1,0.3c0,0,0,0,0,0
	c-0.6,0-1.1-0.1-1.6-0.2l1.9,3.5L19.9,26.9L19.9,26.9z"/>
</svg>
